<svg width="20" height="19" viewBox="0 0 20 19" fill="none" xmlns="http://www.w3.org/2000/svg">
<path d="M20 8V18C20 18.5523 19.5523 19 19 19H18C17.4477 19 17 18.5523 17 18V17H3V18C3 18.5523 2.55228 19 2 19H1C0.44772 19 0 18.5523 0 18V8L2.44721 3.10557C2.786 2.428 3.47852 2 4.23607 2H7V0H13V2H15.7639C16.5215 2 17.214 2.428 17.5528 3.10557L20 8ZM18 10H2V15H18V10ZM2.23607 8H17.7639L15.7639 4H4.23607L2.23607 8ZM4.5 14C3.67157 14 3 13.3284 3 12.5C3 11.6716 3.67157 11 4.5 11C5.32843 11 6 11.6716 6 12.5C6 13.3284 5.32843 14 4.5 14ZM15.5 14C14.6716 14 14 13.3284 14 12.5C14 11.6716 14.6716 11 15.5 11C16.3284 11 17 11.6716 17 12.5C17 13.3284 16.3284 14 15.5 14Z" fill="#37BD6B"/>
</svg>
