<svg width="14" height="14" viewBox="0 0 14 14" fill="none" xmlns="http://www.w3.org/2000/svg">
<path d="M4.99967 0.666016V1.99935H8.99967V0.666016H10.333V1.99935H12.9997C13.3679 1.99935 13.6663 2.29783 13.6663 2.66602V13.3327C13.6663 13.7009 13.3679 13.9993 12.9997 13.9993H0.999674C0.631488 13.9993 0.333008 13.7009 0.333008 13.3327V2.66602C0.333008 2.29783 0.631488 1.99935 0.999674 1.99935H3.66634V0.666016H4.99967ZM12.333 7.33268H1.66634V12.666H12.333V7.33268ZM4.33301 8.66602V9.99935H2.99967V8.66602H4.33301ZM7.66634 8.66602V9.99935H6.33301V8.66602H7.66634ZM10.9997 8.66602V9.99935H9.66634V8.66602H10.9997ZM3.66634 3.33268H1.66634V5.99935H12.333V3.33268H10.333V4.66602H8.99967V3.33268H4.99967V4.66602H3.66634V3.33268Z" fill="#6A6D7C"/>
</svg>
