<svg width="24" height="24" viewBox="0 0 24 24" fill="none" xmlns="http://www.w3.org/2000/svg">
<path d="M8.25 11.25C8.25 9.17893 9.92893 7.5 12 7.5C14.0711 7.5 15.75 9.17893 15.75 11.25C15.75 13.3211 14.0711 15 12 15C9.92893 15 8.25 13.3211 8.25 11.25Z" stroke="#60778C" stroke-width="1.5"/>
<mask id="path-2-inside-1_10_2295" fill="white">
<path fill-rule="evenodd" clip-rule="evenodd" d="M23.1275 11.25C21.3474 15.6477 17.0359 18.75 11.9998 18.75C6.96373 18.75 2.65223 15.6477 0.87207 11.25C2.65223 6.85225 6.96373 3.75 11.9998 3.75C17.0359 3.75 21.3474 6.85226 23.1275 11.25Z"/>
</mask>
<path d="M23.1275 11.25L24.5179 11.8128L24.7458 11.25L24.5179 10.6872L23.1275 11.25ZM0.87207 11.25L-0.518336 10.6872L-0.746161 11.25L-0.518336 11.8128L0.87207 11.25ZM21.7371 10.6872C20.1784 14.538 16.404 17.25 11.9998 17.25V20.25C17.6677 20.25 22.5164 16.7575 24.5179 11.8128L21.7371 10.6872ZM11.9998 17.25C7.5956 17.25 3.82124 14.538 2.26248 10.6872L-0.518336 11.8128C1.48323 16.7575 6.33186 20.25 11.9998 20.25V17.25ZM2.26248 11.8128C3.82124 7.96203 7.5956 5.25 11.9998 5.25V2.25C6.33186 2.25 1.48323 5.74248 -0.518336 10.6872L2.26248 11.8128ZM11.9998 5.25C16.404 5.25 20.1784 7.96203 21.7371 11.8128L24.5179 10.6872C22.5164 5.74248 17.6677 2.25 11.9998 2.25V5.25Z" fill="#60778C" mask="url(#path-2-inside-1_10_2295)"/>
<path d="M15.75 1.5L8.25 21.75" stroke="#60778C" stroke-width="1.5" stroke-linecap="round"/>
<path d="M16.9458 1.5L9.4458 21.75" stroke="white" stroke-width="1.5" stroke-linecap="round"/>
</svg>
