<svg width="20" height="20" viewBox="0 0 20 20" fill="none" xmlns="http://www.w3.org/2000/svg">
<path d="M10.0002 0C13.8662 0 17.0002 3.13401 17.0002 7H18.0742C18.5967 7 19.0311 7.40231 19.0712 7.9233L19.9174 18.9233C19.9597 19.474 19.5477 19.9547 18.997 19.9971L18.9203 20H1.08008C0.527788 20 0.0800781 19.5523 0.0800781 19L0.0830181 18.9233L0.929178 7.9233C0.969248 7.40231 1.4037 7 1.92623 7H3.0002C3.0002 3.13401 6.13421 0 10.0002 0ZM17.1472 9H2.8522L2.1592 18H17.8402L17.1472 9ZM12.0002 11V13H8.0002V11H12.0002ZM10.0002 2C7.31145 2 5.11838 4.12231 5.00482 6.78311L5.0002 7H15.0002C15.0002 4.31124 12.8779 2.11818 10.2171 2.00462L10.0002 2Z" fill="#2FD5C7"/>
</svg>
