<svg width="20" height="19" viewBox="0 0 20 19" fill="none" xmlns="http://www.w3.org/2000/svg">
<path d="M9.15 9C8.84 8.78 8.56 8.54 8.33 8.28L6.93 6.73C6.74 6.52 6.5 6.35 6.24 6.23C5.95 6.09 5.62 6 5.28 6H5.25C4.01 6 3 7.01 3 8.25V9H0V17C0 18.1 0.9 19 2 19H18C19.1 19 20 18.1 20 17V9H9.15ZM5 17H3V11H5V17ZM9 17H7V11H9V17ZM13 17H11V11H13V17ZM17 17H15V11H17V17ZM16.65 2.86L16.58 2.79C16.01 2.17 15.76 1.38 15.91 0.59L16 0H14.11L14.05 0.43C13.85 1.79 14.32 3.14 15.35 4.15L15.42 4.21C15.99 4.83 16.24 5.62 16.09 6.41L15.98 7H17.89L17.95 6.57C18.16 5.21 17.68 3.86 16.65 2.86ZM12.65 2.86L12.58 2.79C12.01 2.17 11.76 1.38 11.91 0.59L12 0H10.11L10.05 0.43C9.85 1.79 10.32 3.14 11.35 4.15L11.42 4.21C11.99 4.83 12.24 5.62 12.09 6.41L11.98 7H13.89L13.95 6.57C14.16 5.21 13.68 3.86 12.65 2.86Z" fill="#6A6D7C"/>
</svg>
