<svg width="22" height="16" viewBox="0 0 22 16" fill="none" xmlns="http://www.w3.org/2000/svg">
<path d="M2.92887 0.929688L4.34315 2.34396C2.89543 3.79167 2 5.79167 2 8.00083C2 10.2099 2.89543 12.2099 4.34315 13.6576L2.92887 15.0719C1.11925 13.2623 0 10.7623 0 8.00083C0 5.23931 1.11925 2.73931 2.92887 0.929688ZM19.0711 0.929688C20.8808 2.73931 22 5.23931 22 8.00083C22 10.7623 20.8808 13.2623 19.0711 15.0719L17.6569 13.6576C19.1046 12.2099 20 10.2099 20 8.00083C20 5.79218 19.105 3.79259 17.6579 2.34496L19.0711 0.929688ZM12 1.00081V7.00083H15L10 15.0008V9.00083H7L12 1.00081ZM5.75736 3.75817L7.17157 5.17238C6.44771 5.89624 6 6.89623 6 8.00083C6 9.10533 6.44771 10.1053 7.17157 10.8292L5.75736 12.2434C4.67157 11.1576 4 9.65763 4 8.00083C4 6.34393 4.67157 4.84396 5.75736 3.75817ZM16.2436 3.75915C17.3288 4.84486 18 6.34443 18 8.00083C18 9.65763 17.3284 11.1576 16.2426 12.2434L14.8284 10.8292C15.5523 10.1053 16 9.10533 16 8.00083C16 6.89673 15.5527 5.89716 14.8294 5.17338L16.2436 3.75915Z" fill="#6A6D7C"/>
</svg>
