<svg width="20" height="20" viewBox="0 0 20 20" fill="none" xmlns="http://www.w3.org/2000/svg">
<path d="M19.7992 12.001C18.9633 16.1168 15.5995 19.3145 11.399 19.9028L11.3992 17.878C14.4926 17.3321 16.9729 15.0086 17.7473 12.0004L19.7992 12.001ZM2.25157 12.0004C3.01757 14.9759 5.45244 17.2814 8.4989 17.8595V19.8882C4.3456 19.2632 1.02888 16.0838 0.199678 12.001L2.25157 12.0004ZM15.9994 9V11H12.9994C11.9451 11 11.0813 11.8159 11.0049 12.8507L10.9994 13V16H8.9994V13C8.9994 11.9456 8.1836 11.0818 7.14871 11.0055L6.99944 11H3.99944V9H15.9994ZM9.9994 0C15.1848 0 19.4483 3.94662 19.9501 8.9999L17.9376 9C17.4455 5.05371 14.0791 2 9.9994 2C5.91981 2 2.55341 5.05371 2.06133 9L0.0488281 8.9999C0.550598 3.94662 4.81413 0 9.9994 0Z" fill="#6A6D7C"/>
</svg>
