<svg width="24" height="24" viewBox="0 0 24 24" fill="none" xmlns="http://www.w3.org/2000/svg">
<g clip-path="url(#clip0_984_3915)">
<path d="M9.18749 10.7812V13.5937C9.18749 13.718 9.2369 13.8373 9.32479 13.9251L10.2623 14.8626C10.3502 14.9505 10.4694 14.9999 10.5937 14.9999H13.4062C13.5305 14.9999 13.6497 14.9505 13.7377 14.8626L14.6752 13.9251C14.7631 13.8373 14.8125 13.718 14.8125 13.5937V10.7812C14.8125 10.0636 14.8603 9.90934 16.1027 8.27964C16.7919 7.3757 17.1562 6.29562 17.1562 5.15623C17.1562 2.31308 14.8431 0 12 0C9.15683 0 6.84375 2.31308 6.84375 5.15623C6.84375 6.29562 7.20801 7.3757 7.89721 8.27964C9.13968 9.90924 9.18749 10.0636 9.18749 10.7812ZM13.875 11.25V12.1875H10.125V11.25H13.875ZM13.212 14.0624H10.7879L10.1249 13.3995V13.1249H13.8749V13.3995L13.212 14.0624ZM12 0.937496C14.3262 0.937496 16.2187 2.83002 16.2187 5.15623C16.2187 6.08848 15.9208 6.97202 15.3572 7.71124C14.3058 9.09034 13.9765 9.58037 13.8967 10.3125H12.4687V6.28793L13.2689 5.48773C13.452 5.30468 13.452 5.00787 13.2689 4.82478C13.0858 4.64173 12.7891 4.64173 12.606 4.82478L11.9999 5.43082L11.3939 4.82478C11.2108 4.64173 10.9141 4.64173 10.7309 4.82478C10.5479 5.00782 10.5479 5.30464 10.7309 5.48773L11.5311 6.28793V10.3125H10.1031C10.0233 9.58027 9.69411 9.09029 8.64262 7.71124C8.07909 6.97202 7.78115 6.08848 7.78115 5.15623C7.78125 2.83002 9.67377 0.937496 12 0.937496Z" fill="#2FD5C7"/>
<path d="M4.26562 5.625H5.20312C5.46197 5.625 5.67188 5.41514 5.67188 5.15625C5.67188 4.89736 5.46197 4.6875 5.20312 4.6875H4.26562C4.00678 4.6875 3.79688 4.89736 3.79688 5.15625C3.79688 5.41514 4.00678 5.625 4.26562 5.625Z" fill="#2FD5C7"/>
<path d="M5.06647 1.69507L5.87834 2.16382C5.95212 2.20643 6.03275 2.22673 6.11225 2.22673C6.27425 2.22673 6.4318 2.14263 6.51866 1.99231C6.64812 1.7681 6.5713 1.48142 6.34709 1.35195L5.53522 0.883197C5.31106 0.753728 5.02437 0.830603 4.89491 1.05476C4.76548 1.27892 4.84226 1.5656 5.06647 1.69507Z" fill="#2FD5C7"/>
<path d="M5.87836 8.14881L5.06649 8.61756C4.84229 8.74703 4.76546 9.03367 4.89493 9.25788C4.98179 9.40825 5.13929 9.4923 5.30133 9.4923C5.38083 9.4923 5.46146 9.47205 5.53524 9.42944L6.34711 8.96069C6.57132 8.83122 6.64814 8.54458 6.51868 8.32033C6.38921 8.09617 6.10257 8.01939 5.87836 8.14881Z" fill="#2FD5C7"/>
<path d="M18.3281 5.15625C18.3281 5.41514 18.538 5.625 18.7969 5.625H19.7344C19.9933 5.625 20.2032 5.41514 20.2032 5.15625C20.2032 4.89736 19.9933 4.6875 19.7344 4.6875H18.7969C18.538 4.6875 18.3281 4.89736 18.3281 5.15625Z" fill="#2FD5C7"/>
<path d="M17.8873 2.22671C17.9668 2.22671 18.0474 2.20641 18.1212 2.1638L18.933 1.69505C19.1573 1.56558 19.2341 1.27894 19.1046 1.05474C18.9751 0.830582 18.6885 0.753754 18.4643 0.883176L17.6524 1.35193C17.4282 1.48139 17.3514 1.76804 17.4809 1.99229C17.5677 2.14261 17.7252 2.22671 17.8873 2.22671Z" fill="#2FD5C7"/>
<path d="M17.6524 8.9607L18.4643 9.42945C18.5381 9.47206 18.6187 9.49231 18.6982 9.49231C18.8602 9.49231 19.0178 9.40826 19.1046 9.25788C19.2341 9.03368 19.1573 8.74704 18.933 8.61757L18.1212 8.14882C17.897 8.01935 17.6104 8.09623 17.4809 8.32038C17.3514 8.54459 17.4282 8.83123 17.6524 8.9607Z" fill="#2FD5C7"/>
<path d="M23.5312 19.7803V18.3388C23.5312 18.0799 23.3213 17.8701 23.0625 17.8701C21.1763 17.8701 19.9985 17.3285 18.9594 16.8507C18.6558 16.7111 18.3691 16.5793 18.0821 16.4695C16.7035 15.9422 15.4493 15.8905 14.3544 16.3157C13.4616 16.6624 12.672 17.3288 12 18.3011C11.328 17.3288 10.5383 16.6624 9.64552 16.3157C8.55067 15.8905 7.29639 15.9422 5.91781 16.4695C5.63079 16.5793 5.3441 16.7111 5.04054 16.8507C4.00142 17.3285 2.82365 17.8701 0.93745 17.8701C0.678607 17.8701 0.468701 18.0799 0.468701 18.3388V19.7803C0.209859 19.7803 0 19.9901 0 20.249V22.3584C0 22.6173 0.209905 22.8271 0.468748 22.8271H10.1105C10.4623 23.5315 11.1953 23.999 12 23.999C12.8046 23.999 13.5376 23.5315 13.8894 22.8271H23.5312C23.79 22.8271 23.9999 22.6173 23.9999 22.3584V20.249C23.9999 19.9902 23.79 19.7803 23.5312 19.7803ZM17.7472 17.3452C18.0055 17.444 18.2786 17.5695 18.5677 17.7025C19.5562 18.1571 20.7679 18.7142 22.5937 18.7971V19.7804H13.6004C13.1699 19.7804 12.792 19.8631 12.4687 20.0273V19.3105C13.7489 17.1196 15.4768 16.4768 17.7472 17.3452ZM5.43223 17.7025C5.7214 17.5695 5.99449 17.4439 6.25273 17.3452C8.5232 16.4768 10.251 17.1197 11.5312 19.3105V20.0272C11.208 19.863 10.8301 19.7803 10.3996 19.7803H1.4062V18.7971C3.23197 18.7142 4.44378 18.157 5.43223 17.7025ZM23.0624 21.8897H13.5725C13.3651 21.8897 13.1824 22.026 13.1233 22.2247C12.9765 22.7174 12.5147 23.0616 12 23.0616C11.4852 23.0616 11.0234 22.7175 10.8766 22.2247C10.8175 22.0259 10.6348 21.8897 10.4274 21.8897H0.937496V20.7178H10.3996C10.9664 20.7178 11.3459 20.918 11.594 21.3477C11.6777 21.4928 11.8325 21.5821 11.9999 21.5821C12.1673 21.5821 12.3221 21.4928 12.4058 21.3477C12.654 20.918 13.0335 20.7178 13.6003 20.7178H23.0623V21.8897H23.0624Z" fill="#2FD5C7"/>
</g>
<defs>
<clipPath id="clip0_984_3915">
<rect width="24" height="24" fill="white"/>
</clipPath>
</defs>
</svg>
