<svg width="16" height="21" viewBox="0 0 16 21" fill="none" xmlns="http://www.w3.org/2000/svg">
<path d="M7 15.9381C3.05369 15.446 0 12.0796 0 8C0 3.58172 3.58172 0 8 0C12.4183 0 16 3.58172 16 8C16 12.0796 12.9463 15.446 9 15.9381V18.0116C12.9463 18.1039 16 18.7351 16 19.5C16 20.3284 12.4183 21 8 21C3.58172 21 0 20.3284 0 19.5C0 18.7351 3.05369 18.1039 7 18.0116V15.9381ZM8 10C9.1046 10 10 9.1046 10 8C10 6.89543 9.1046 6 8 6C6.8954 6 6 6.89543 6 8C6 9.1046 6.8954 10 8 10Z" fill="#37BD6B"/>
</svg>
