<svg width="22" height="19" viewBox="0 0 22 19" fill="none" xmlns="http://www.w3.org/2000/svg">
<path d="M7.36547 7L10.2 5H13.6915L12.5996 2H10V0H14L15.0919 3H19V6H16.1838L17.6405 10.0022C20.0608 10.0764 22 12.0617 22 14.5C22 16.9853 19.9853 19 17.5 19C15.0147 19 13 16.9853 13 14.5C13 12.6722 14.0897 11.0989 15.6549 10.3944L14.4194 7H13.4718L11.89 12.87L8.96536 13.9389C8.98822 14.1227 9 14.31 9 14.5C9 16.9853 6.98528 19 4.5 19C2.01472 19 0 16.9853 0 14.5C0 12.5407 1.25221 10.8738 3 10.2561V9H1V7H7.36547ZM4.5 17C5.88071 17 7 15.8807 7 14.5C7 13.1193 5.88071 12 4.5 12C3.11929 12 2 13.1193 2 14.5C2 15.8807 3.11929 17 4.5 17ZM17.5 17C18.8807 17 20 15.8807 20 14.5C20 13.1193 18.8807 12 17.5 12C16.1193 12 15 13.1193 15 14.5C15 15.8807 16.1193 17 17.5 17Z" fill="#2FD5C7"/>
</svg>
