<svg width="22" height="22" viewBox="0 0 22 22" fill="none" xmlns="http://www.w3.org/2000/svg">
<path d="M9.0544 1.09361C10.1756 0.138071 11.8248 0.138061 12.9461 1.09362L14.2941 2.24237C14.4542 2.37886 14.6533 2.46133 14.8631 2.47807L16.6286 2.61896C18.0971 2.73614 19.2633 3.90231 19.3805 5.37082L19.5214 7.1363C19.5381 7.34605 19.6205 7.54519 19.757 7.70536L20.9058 9.05341C21.8614 10.1746 21.8614 11.8238 20.9058 12.9451L19.757 14.293C19.6206 14.4532 19.538 14.6524 19.5213 14.8622L19.3805 16.6276C19.2633 18.0962 18.0971 19.2623 16.6286 19.3794L14.8631 19.5203C14.6533 19.5371 14.4542 19.6196 14.2941 19.7561L12.9461 20.9048C11.8248 21.8604 10.1756 21.8603 9.0543 20.9048L7.70631 19.7561C7.54615 19.6196 7.34705 19.5371 7.1373 19.5204L5.37184 19.3794C3.9033 19.2622 2.73716 18.0961 2.61997 16.6276L2.47906 14.8622C2.46232 14.6524 2.37983 14.4533 2.24336 14.2931L1.0946 12.945C0.139048 11.8238 0.139038 10.1747 1.09458 9.05341L2.24334 7.7054C2.37983 7.54524 2.46234 7.34605 2.47907 7.13629L2.61996 5.37081C2.73714 3.90229 3.90327 2.73616 5.3718 2.61897L7.13729 2.47808C7.34705 2.46134 7.54619 2.37886 7.70636 2.24237L9.0544 1.09361ZM11.6488 2.61583C11.2751 2.29733 10.7253 2.29732 10.3516 2.61583L9.0036 3.7646C8.5231 4.17407 7.92568 4.42152 7.29637 4.47174L5.5309 4.61263C5.04139 4.6517 4.65268 5.0404 4.61362 5.52992L4.47272 7.29544C4.4225 7.92472 4.17505 8.5221 3.76559 9.00261L2.61683 10.3506C2.29832 10.7243 2.29831 11.2741 2.61683 11.6478L3.76559 12.9958C4.17506 13.4763 4.4225 14.0738 4.47275 14.703L4.61363 16.4685C4.65268 16.958 5.04139 17.3468 5.53092 17.3858L7.29636 17.5267C7.92563 17.5769 8.5231 17.8244 9.0036 18.2339L10.3516 19.3826C10.7254 19.7011 11.2751 19.7011 11.6488 19.3826L12.9969 18.2338C13.4773 17.8244 14.0747 17.5769 14.704 17.5267L16.4695 17.3858C16.959 17.3467 17.3478 16.958 17.3868 16.4685L17.5277 14.703C17.5779 14.0737 17.8253 13.4763 18.2349 12.9959L19.3836 11.6478C19.7022 11.2741 19.7021 10.7244 19.3836 10.3506L18.2348 9.00261C17.8253 8.5221 17.5779 7.9247 17.5277 7.29541L17.3868 5.52992C17.3478 5.04041 16.959 4.6517 16.4695 4.61263L14.704 4.47175C14.0748 4.42154 13.4773 4.17406 12.9968 3.76459L11.6488 2.61583ZM13.8284 6.75669L15.2426 8.17091L8.17154 15.242L6.75733 13.8277L13.8284 6.75669ZM9.2322 9.23151C8.64641 9.81731 7.69667 9.81731 7.11088 9.23151C6.52509 8.64581 6.52509 7.69603 7.11088 7.11024C7.69667 6.52445 8.64641 6.52445 9.2322 7.11024C9.818 7.69603 9.818 8.64581 9.2322 9.23151ZM12.7677 14.8884C13.3535 15.4742 14.3032 15.4742 14.889 14.8884C15.4748 14.3026 15.4748 13.3529 14.889 12.7671C14.3032 12.1813 13.3535 12.1813 12.7677 12.7671C12.1819 13.3529 12.1819 14.3026 12.7677 14.8884Z" fill="#6A6D7C"/>
</svg>
