<svg width="18" height="19" viewBox="0 0 18 19" fill="none" xmlns="http://www.w3.org/2000/svg">
<path d="M12 3H14C15.1046 3 16 3.89543 16 5V13.1707C17.1652 13.5825 18 14.6938 18 16C18 17.6569 16.6569 19 15 19C13.3431 19 12 17.6569 12 16C12 14.6938 12.8348 13.5825 14 13.1707V5H12V8L7.5 4L12 0V3ZM2 6.82929C0.83481 6.41746 0 5.30622 0 4C0 2.34315 1.34315 1 3 1C4.65685 1 6 2.34315 6 4C6 5.30622 5.16519 6.41746 4 6.82929V13.1707C5.16519 13.5825 6 14.6938 6 16C6 17.6569 4.65685 19 3 19C1.34315 19 0 17.6569 0 16C0 14.6938 0.83481 13.5825 2 13.1707V6.82929ZM3 5C3.55228 5 4 4.55228 4 4C4 3.44772 3.55228 3 3 3C2.44772 3 2 3.44772 2 4C2 4.55228 2.44772 5 3 5ZM3 17C3.55228 17 4 16.5523 4 16C4 15.4477 3.55228 15 3 15C2.44772 15 2 15.4477 2 16C2 16.5523 2.44772 17 3 17ZM15 17C15.5523 17 16 16.5523 16 16C16 15.4477 15.5523 15 15 15C14.4477 15 14 15.4477 14 16C14 16.5523 14.4477 17 15 17Z" fill="#6A6D7C"/>
</svg>
