<svg width="22" height="22" viewBox="0 0 22 22" fill="none" xmlns="http://www.w3.org/2000/svg">
<path d="M7.68637 2.99911L10.293 0.392507C10.6835 0.00197688 11.3167 0.00197688 11.7072 0.392507L14.3138 2.99911H18.0001C18.5524 2.99911 19.0001 3.44683 19.0001 3.99911V7.6854L21.6067 10.292C21.9972 10.6825 21.9972 11.3157 21.6067 11.7062L19.0001 14.3128V17.9991C19.0001 18.5514 18.5524 18.9991 18.0001 18.9991H14.3138L11.7072 21.6057C11.3167 21.9962 10.6835 21.9962 10.293 21.6057L7.68637 18.9991H4.00008C3.4478 18.9991 3.00008 18.5514 3.00008 17.9991V14.3128L0.393483 11.7062C0.00295344 11.3157 0.00295344 10.6825 0.393483 10.292L3.00008 7.6854V3.99911C3.00008 3.44683 3.4478 2.99911 4.00008 2.99911H7.68637ZM5.00008 4.99911V8.51383L2.5148 10.9991L5.00008 13.4844V16.9991H8.5148L11.0001 19.4844L13.4854 16.9991H17.0001V13.4844L19.4854 10.9991L17.0001 8.51383V4.99911H13.4854L11.0001 2.51383L8.5148 4.99911H5.00008ZM11.0001 14.9991C8.79094 14.9991 7.00008 13.2082 7.00008 10.9991C7.00008 8.78997 8.79094 6.99911 11.0001 6.99911C13.2092 6.99911 15.0001 8.78997 15.0001 10.9991C15.0001 13.2082 13.2092 14.9991 11.0001 14.9991ZM11.0001 12.9991C12.1047 12.9991 13.0001 12.1037 13.0001 10.9991C13.0001 9.89453 12.1047 8.99913 11.0001 8.99913C9.8955 8.99913 9.0001 9.89453 9.0001 10.9991C9.0001 12.1037 9.8955 12.9991 11.0001 12.9991Z" fill="#6A6D7C"/>
</svg>
