<svg width="22" height="20" viewBox="0 0 22 20" fill="none" xmlns="http://www.w3.org/2000/svg">
<path d="M10.4799 1.49921C10.5222 1.39605 10.5942 1.30779 10.6868 1.24567C10.7794 1.18356 10.8884 1.15039 10.9999 1.15039C11.1114 1.15039 11.2204 1.18356 11.313 1.24567C11.4056 1.30779 11.4776 1.39605 11.5199 1.49921L13.6449 6.61021C13.6847 6.70585 13.7501 6.78866 13.8339 6.84953C13.9177 6.9104 14.0167 6.94697 14.1199 6.95521L19.6379 7.39721C20.1369 7.43721 20.3389 8.06021 19.9589 8.38521L15.7549 11.9872C15.6764 12.0544 15.6178 12.1419 15.5857 12.2402C15.5536 12.3384 15.5492 12.4436 15.5729 12.5442L16.8579 17.9292C16.8837 18.0373 16.877 18.1505 16.8385 18.2547C16.8 18.3589 16.7314 18.4494 16.6416 18.5146C16.5517 18.5799 16.4445 18.6171 16.3335 18.6214C16.2225 18.6258 16.1127 18.5972 16.0179 18.5392L11.2929 15.6542C11.2047 15.6003 11.1033 15.5718 10.9999 15.5718C10.8965 15.5718 10.7951 15.6003 10.7069 15.6542L5.98192 18.5402C5.88718 18.5982 5.77737 18.6268 5.66638 18.6224C5.55538 18.6181 5.44817 18.5809 5.35829 18.5156C5.26841 18.4504 5.19988 18.3599 5.16137 18.2557C5.12286 18.1515 5.11609 18.0383 5.14192 17.9302L6.42692 12.5442C6.45075 12.4436 6.44637 12.3384 6.41426 12.2401C6.38215 12.1418 6.32355 12.0543 6.24492 11.9872L2.04092 8.38521C1.95626 8.31305 1.89493 8.21738 1.86468 8.11033C1.83443 8.00328 1.83664 7.88966 1.87101 7.78386C1.90538 7.67807 1.97038 7.58485 2.05777 7.51602C2.14516 7.44719 2.25101 7.40584 2.36192 7.39721L7.87992 6.95521C7.98317 6.94697 8.08214 6.9104 8.16595 6.84953C8.24975 6.78866 8.31514 6.70585 8.35492 6.61021L10.4799 1.49921Z" stroke="#6A6D7C" stroke-width="2" stroke-linecap="round" stroke-linejoin="round"/>
</svg>
